<svg width="22" height="22" viewBox="0 0 22 22" fill="none" xmlns="http://www.w3.org/2000/svg">
<path d="M13.0237 11.0187L21.5401 2.50232C21.682 2.37002 21.7959 2.21048 21.8749 2.03322C21.9539 1.85596 21.9964 1.66461 21.9998 1.47057C22.0032 1.27654 21.9675 1.08381 21.8948 0.903871C21.8221 0.723933 21.714 0.560477 21.5767 0.423255C21.4395 0.286032 21.2761 0.177854 21.0961 0.105175C20.9162 0.0324947 20.7235 -0.00319857 20.5294 0.000224893C20.3354 0.00364835 20.144 0.0461183 19.9668 0.125101C19.7895 0.204083 19.63 0.317959 19.4977 0.459937L10.9813 8.97628L2.465 0.459937C2.19106 0.204678 1.82874 0.0657126 1.45436 0.072318C1.07999 0.0789234 0.722793 0.230584 0.458029 0.495348C0.193265 0.760112 0.0416045 1.11731 0.0349991 1.49168C0.0283937 1.86606 0.167359 2.22838 0.422618 2.50232L8.93896 11.0187L0.422618 19.535C0.152002 19.806 0 20.1732 0 20.5562C0 20.9391 0.152002 21.3064 0.422618 21.5774C0.693572 21.848 1.06086 22 1.44381 22C1.82676 22 2.19405 21.848 2.465 21.5774L10.9813 13.061L19.4977 21.5774C19.7686 21.848 20.1359 22 20.5189 22C20.9018 22 21.2691 21.848 21.5401 21.5774C21.8107 21.3064 21.9627 20.9391 21.9627 20.5562C21.9627 20.1732 21.8107 19.806 21.5401 19.535L13.0237 11.0187Z" fill="#F10684" fill-opacity="0.96"/>
</svg>
