<svg width="37" height="37" viewBox="0 0 37 37" fill="none" xmlns="http://www.w3.org/2000/svg">
<path d="M18.4807 1.00796e-05C14.3118 -0.000370742 10.2663 1.41406 7.00582 4.01191C6.86398 3.9855 6.72019 3.9709 6.57593 3.96826C5.8743 3.96826 5.20141 4.24698 4.70528 4.74311C4.20915 5.23924 3.93043 5.91213 3.93043 6.61376C3.93308 6.75802 3.94768 6.90181 3.97408 7.04366C1.38087 10.3317 -0.0201017 14.4022 0.000217961 18.5898C0.0205377 22.7773 1.46095 26.834 4.08594 30.0968C6.71094 33.3595 10.3652 35.6351 14.4513 36.5515C18.5373 37.468 22.8135 36.971 26.5805 35.142C30.3475 33.3129 33.3825 30.2599 35.1893 26.4822C36.9961 22.7045 37.4679 18.4255 36.5273 14.3449C35.5868 10.2643 33.2897 6.62353 30.0116 4.01782C26.7334 1.41211 22.6683 -0.00435955 18.4807 1.00796e-05ZM18.4807 34.3915C15.5429 34.3971 12.6614 33.5857 10.1582 32.0479C7.65494 30.5102 5.6286 28.3067 4.30556 25.6837C2.98251 23.0606 2.41488 20.1214 2.66608 17.1943C2.91728 14.2673 3.97742 11.4677 5.72805 9.10847C6.21744 9.28999 6.75238 9.30855 7.25318 9.16138L9.18836 11.0966C7.42532 13.2927 6.49934 16.0436 6.57546 18.8588C6.65157 21.6741 7.72484 24.3708 9.60397 26.4685C11.4831 28.5662 14.046 29.9285 16.836 30.3127C19.626 30.6969 22.4617 30.0779 24.8378 28.5661C25.3452 28.9491 25.9739 29.1357 26.608 29.0916C27.2421 29.0475 27.8389 28.7757 28.2884 28.3262C28.7378 27.8767 29.0097 27.2799 29.0538 26.6458C29.0979 26.0117 28.9112 25.383 28.5283 24.8757C29.7407 22.977 30.3849 20.7712 30.3849 18.5185C30.3849 16.2658 29.7407 14.06 28.5283 12.1614C28.9112 11.654 29.0979 11.0253 29.0538 10.3912C29.0097 9.75712 28.7378 9.16032 28.2884 8.71085C27.8389 8.26138 27.2421 7.98954 26.608 7.94545C25.9739 7.90135 25.3452 8.08797 24.8378 8.47091C22.7508 7.1393 20.2987 6.49593 17.8267 6.63143C15.3548 6.76693 12.9877 7.67446 11.0587 9.2262L9.12355 7.29101C9.27081 6.79023 9.25225 6.25526 9.07064 5.76588C11.0891 4.27629 13.4321 3.28667 15.9073 2.87828C18.3824 2.46989 20.9192 2.65438 23.3092 3.41659C25.6992 4.1788 27.8744 5.497 29.6561 7.26297C31.4378 9.02894 32.7753 11.1923 33.5587 13.5755C34.3421 15.9586 34.5491 18.4936 34.1627 20.9723C33.7763 23.451 32.8076 25.8027 31.336 27.8343C29.8644 29.866 27.9319 31.5196 25.6972 32.6595C23.4625 33.7993 20.9893 34.3929 18.4807 34.3915ZM18.4807 15.873C19.0039 15.873 19.5154 16.0282 19.9504 16.3189C20.3855 16.6096 20.7246 17.0227 20.9248 17.5061C21.125 17.9895 21.1774 18.5215 21.0754 19.0346C20.9733 19.5478 20.7213 20.0192 20.3513 20.3892C19.9814 20.7592 19.51 21.0111 18.9968 21.1132C18.4836 21.2153 17.9517 21.1629 17.4683 20.9626C16.9849 20.7624 16.5717 20.4233 16.281 19.9883C15.9903 19.5532 15.8352 19.0417 15.8352 18.5185C15.8359 17.8171 16.1148 17.1446 16.6108 16.6486C17.1068 16.1527 17.7793 15.8737 18.4807 15.873ZM23.0217 15.8479L25.7399 13.1296C25.8388 13.1551 25.9391 13.175 26.0402 13.1892C27.1463 14.7461 27.7405 16.6087 27.7405 18.5185C27.7405 20.4284 27.1463 22.2909 26.0402 23.8479C25.9391 23.862 25.8388 23.8819 25.7399 23.9074L23.0217 21.1892C23.5121 20.3847 23.7715 19.4607 23.7715 18.5185C23.7715 17.5764 23.5121 16.6524 23.0217 15.8479ZM23.81 10.959C23.8241 11.0602 23.844 11.1604 23.8696 11.2593L21.1513 13.9775C20.3468 13.4871 19.4229 13.2277 18.4807 13.2277C17.5385 13.2277 16.6145 13.4871 15.8101 13.9775L12.9463 11.1111C14.506 9.93494 16.3998 9.28603 18.3531 9.25844C20.3064 9.23085 22.2177 9.82734 23.81 10.959ZM13.9397 15.8479C13.4537 16.6543 13.1946 17.577 13.1897 18.5185C13.1914 19.9212 13.7494 21.266 14.7413 22.2579C15.7332 23.2498 17.078 23.8078 18.4807 23.8095C19.4222 23.8046 20.3449 23.5455 21.1513 23.0595L23.8696 25.7778C23.844 25.8766 23.8241 25.9769 23.81 26.078C22.0115 27.353 19.8165 27.9432 17.6211 27.7421C15.4257 27.541 13.3744 26.5619 11.8375 24.9813C10.3006 23.4008 9.37912 21.323 9.23947 19.1228C9.09982 16.9226 9.75115 14.745 11.0759 12.9828L13.9397 15.8479Z" fill="#F10684"/>
</svg>
